<svg version="1" xmlns="http://www.w3.org/2000/svg" viewBox="-250 -50 1024 1024" width="250" height="250"><circle cx="254" cy="254" r="254" fill="#f15249"/><path d="M147 368l137 137a252 252 0 0 0 221-219L367 148 147 368z" fill="#ad0e0e"/><path d="M374 310c11 11 11 30 0 41l-23 23a30 30 0 0 1-41 0L134 198a30 30 0 0 1 0-42l23-23c11-11 30-11 41 0l176 177z" fill="#fff"/><path d="M281 216l-65 65 94 93c11 11 30 11 41 0l23-24c12-11 12-30 0-41l-93-93z" fill="#d6d6d6"/><path d="M310 134c11-12 30-12 41 0l23 23c12 11 12 30 0 41L198 374a30 30 0 0 1-42 0l-22-23a30 30 0 0 1 0-41l176-176z" fill="#fff"/></svg>