<svg xmlns="http://www.w3.org/2000/svg" width="683" height="683" viewBox="50 50 400 400"><path fill="#104977" d="M512 256v14a256 256 0 0 1-270 242l-4-1a255 255 0 0 1-25-3 269 269 0 0 1-8-1 256 256 0 1 1 306-277v1a259 259 0 0 1 1 25zm0 0"/><path fill="#1769aa" d="M512 257v13a256 256 0 0 1-270 242L131 401l235-290zm0 0"/><path fill="#bd9f1a" d="M131 251h250v150H131zm0 0"/><path fill="#b48100" d="M256 251h125v150H256zm0 0"/><path fill="#fff" d="M146 111h220v260H146zm0 0"/><path fill="#ebebeb" d="M256 111h110v260H256zm0 0"/><path fill="#c0dafb" d="M181 243h150v25H181zm0 0M181 198h150v25H181zm0 0"/><path fill="#a0b9d8" d="M256 243h75v25h-75zm0 0M256 198h75v25h-75zm0 0"/><path fill="#f5d239" d="M256 326l-125-75v150h250V251zm0 0"/><path fill="#c0a631" d="M256 326v75h125V251zm0 0"/><g fill="#ff6680"><path d="M211 176h-8l-14-24v24h-8v-37h8l14 25v-25h8zm0 0M244 160h-15v10h17v6h-24v-37h24v7h-17v8h15zm0 0M284 166l5-27h7l-8 37h-8l-6-24-6 24h-7l-9-37h8l5 27 6-27h7zm0 0"/></g><path fill="#d14960" d="M323 167l-1-4-6-2-6-3c-4-2-6-5-6-9l1-5 5-4 7-1 7 1c3 1 4 3 5 4l2 6h-8l-1-4-5-1-4 1-2 3 2 3 6 3c4 1 7 2 9 4s3 5 3 8-1 5-4 7c-2 2-5 3-9 3l-8-2-6-4-1-6h7c0 4 3 6 8 6l4-1 1-3zm0 0M289 139l-5 27-6-27h-7l-6 27-5-27h-4v17l5 20h7l6-24 6 24h8l8-37zm0 0"/></svg>