<svg xmlns="http://www.w3.org/2000/svg" width="450" height="100" version="1" viewBox="-140 -120 750 250"><path d="M40 2c-1 2-1 3 2 3 7 0 7 0-1 30-9 32-9 32-14 32-2 0-3 2-3 4l17 1 17-1 1-2c0-2-1-2-4-2-4-1-4-1-5-3l1-9 4-11 1-5h9a46 46 0 0 0 25-6c1 0-2 19-7 32l-2 7h7l6-1 5-13c7-20 11-26 15-21l4 2h3l-2 5c-5 12-1 24 9 28 15 6 34-10 34-28 0-12-6-18-17-19-7 0-13 2-17 6-2 2-3 2-3 0 0-6-9-8-15-3l-5 6-2 3v-4c0-4-3-8-6-8l-1-6c0-7 0-7-4-11-5-6-10-7-33-7-15-1-19 0-20 1zm38 7l1 7c0 10-5 16-15 17l-6-1 7-24c1-2 2-2 6-2l6 3zm70 22c3 4-2 26-7 34l-6 3c-3 0-4-1-4-3-2-5 3-26 8-32 2-3 7-4 9-1z"/><path d="M188 2c-7 3-12 10-15 20-1 4-1 4-6 4-4 0-5 1-5 3-1 3-1 3 4 3h4l-14 59c-1 5-4 5-5 1 0-4-2-5-5-5-2 0-5 3-5 6 0 7 12 10 20 4 6-5 10-14 16-41l6-24h5c4 0 5 0 6-3l1-3h-10v-4l3-10c3-8 6-9 9-4 2 5 7 5 9 2 3-3 2-5-1-8-2-2-3-2-8-2l-10 2zM429 1c-3 1-4 4-1 4s6 2 6 4a342 342 0 0 1-12 46c-1 4-5 10-7 10s-1-7 4-22l4-17-6-1c-5 0-6 0-7 3l-1 2-3-2c-5-6-17-3-24 5-6 6-8 10-10 23-1 3-5 9-7 9s-1-3 2-14c5-13 6-18 4-22l-3-3h-13l-10 10c0 2-1 1-1-2 1-6-2-9-7-9-4 0-8 2-12 7l-3 4-1-3c-3-7-16-10-26-6-8 4-16 16-16 25 0 4-4 11-7 13-3 1-3-2 1-15 5-15 6-20 2-23-3-3-9-3-14 1l-3 2-3-2c-1-2-3-3-8-3-15-1-24 9-18 20l6 9c5 6 6 10 3 13l-4 1c-2-1-3-1-3-5-1-5-2-6-6-6-4 1-6 5-4 9 5 9 21 9 29 1 2-2 2-4 3-8 0-6-1-10-8-17-4-4-5-6-5-8 1-3 1-4 4-4s4 1 4 3c2 7 5 8 11 2 3-3 5-3 5 0l-4 13c-5 13-5 19-2 23 5 4 12 2 18-5l4-4 2 3 6 6c15 7 34-6 36-24 1-10 8-19 7-9l-4 18-4 15 6 1h6l5-13c5-15 8-21 12-24 7-6 8-2 3 13l-5 15c0 4 0 5 2 7 5 5 12 4 18-3l3-4 1 3c4 9 18 9 25 1 2-3 2-3 2-1l2 5c2 2 3 2 7 2l8-4c2-3 3-3 3-2 0 3 4 6 8 6 3 0 5-1 8-4 4-3 9-12 8-14s-3-1-4 2c-1 4-5 8-6 8-2 0-1-7 7-34l8-30h-21zM310 31c4 4-3 29-9 35-3 3-7 3-8 0-3-5 2-27 8-33 2-3 7-4 9-2zm95 3c2 3 1 6-2 15-2 8-7 15-11 16-3 1-6-2-6-6s3-13 5-18c4-8 11-12 14-7zM271 5c-4 3-4 7-1 10 4 3 8 3 11-1 3-3 3-6-1-9-3-4-6-4-9 0z"/><path d="M200 28c-10 4-16 15-17 26 0 12 4 18 14 19 7 0 13-2 19-9 4-4 5-5 3-7-2-1-2 0-5 3-8 9-17 8-17-2v-5l9-2c14-4 21-11 19-19-2-7-15-9-25-4zm13 2c3 3-1 10-8 15s-7 4-4-5c2-6 7-11 9-11l3 1z"/></svg>