<svg xmlns="http://www.w3.org/2000/svg" width="500" height="500" viewBox="0 -55 730 90"><path fill="#006aa9" d="M432 75l-2-1h-3l-4-1-6-3h-1l-2-1-3-2c-11-7-18-20-17-31 1-8 2-11 6-16l3-5 12-10 3-1c5-3 8-3 19-3h8l12 4c2 2 4 1 5-1 1-1 3-2 4-1v24h-4l-2-3-3-8v-1l-7-7c-4-3-6-3-11-3-6 0-9 1-12 3-4 3-6 7-8 13-3 15-1 35 5 43l8 6c4 1 11 0 15-1s6-3 9-6l5-11c1-3 1-4 4-4l2 1v2l-1 5-4 8-1 1-2 3-10 6h-3l-14 1zm136 0c-11-3-15-5-21-10-8-7-12-13-14-22s2-20 9-28a50 50 0 0 1 16-11 47 47 0 0 1 35 0c4 1 12 7 15 10 5 5 8 12 9 17 3 13-2 25-13 34-5 4-13 8-19 9l-17 1zm14-6c9-3 13-12 13-31 0-20-4-29-13-32h-14l-7 6c-3 5-5 14-5 26l2 19c3 8 7 12 14 13 3 1 8 0 10-1zM4 73H3l1-4h5l5-1V7L9 6H4L3 3l23-1h23v2c0 2 0 2-2 2h-6l-4 1v62l11-1c6-1 6-1 11-4s7-8 8-15c0-3 0-4 2-4 3 0 3-1 3 21v7H4zm74 0l-1-2-1-2h3c5 0 8-3 11-10a388 388 0 0 1 21-43l2-3 2-4 2-4 1-3h4c5 0 5 1 6 3l2 3a161 161 0 0 1 7 15l3 5 4 8a810 810 0 0 0 16 31c0 2 2 2 6 2h4v4h-45v-1-2l5-1 5-1c1-1-5-13-7-14l-14-1c-17 0-16 0-18 5l-2 4-1 4c1 2 2 3 7 3h4v2l-1 2H78zm47-25l-1-4a310 310 0 0 1-10-19 286 286 0 0 1-13 23l1 1a174 174 0 0 0 23-1zm176 25v-4h3c2 0 5-1 6-3 2-1 2-2 6-10l3-5v-1l1-2 5-10a127 127 0 0 1 4-9l3-6 5-11 3-6 2-4h4c5 0 5 1 6 3l2 2a305 305 0 0 1 9 18l4 9a186 186 0 0 0 9 17 110 110 0 0 0 5 9 268 268 0 0 0 3 7c0 1 2 2 6 2h4v2l1 2h-45l-1-2c0-2 1-3 5-2 6 0 7 0 5-4a143 143 0 0 1-6-11l-15-1c-16 0-16 0-17 3l-1 3c-3 5-3 8-1 9l5 1h3l1 4h-27zm49-25l-3-6a59 59 0 0 1-3-7 163 163 0 0 1-6-11l-3 5-1 2a294 294 0 0 0-8 18h12l12-1zM215 72v-2l3-1c4 0 6-1 7-4l1-27V13l-1-2c-2-2-4-4-7-4l-2-1-1-4h33l2 2 3 3 7 8a80 80 0 0 1 7 8 252 252 0 0 1 13 15l5 5V9c-1-1-5-3-8-3h-3V2h11a9513 9513 0 0 1 16 2c0 2 0 3-2 2l-7 3-2 2v62h-9l-4-5a399 399 0 0 0-27-31 459 459 0 0 0-19-20v49c2 2 4 3 8 3 3 0 4 0 4 2v2h-28v-1zm263 0l2-3h4c7 0 6 4 6-31 0-36 1-32-7-32h-5V4 3l23-1h21l1 1v2l-1 1h-5l-5 1a409 409 0 0 0 0 61l5 1h5v4h-43l-1-1zm148 1v-4h3l4-1c3-2 3-1 3-30V11c-1-2-5-4-8-4-2-1-2-1-2-3V2h16l18 1a668 668 0 0 1 35 40l1-16-1-18-7-3h-4V2h14c15 0 14 0 14 3 0 1-1 2-2 1l-7 2-2 2v31l-1 32h-4l-6-1-1-2-2-2-7-7-3-4a259 259 0 0 1-19-23l-2-2a304 304 0 0 1-14-15l-1 24c0 27 0 26 4 27l5 1h3v4h-27z"/></svg>