<svg xmlns="http://www.w3.org/2000/svg" width="630" height="135" version="1" viewBox="125 -160 375 375"><g fill="none" fill-rule="evenodd"><path fill="#000" d="M46 45c0 6 0 7 6 7 16 0 20-7 20-15 0-10-8-13-19-13-7 0-7 3-7 7v14zm7 26c-7 0-7 0-7 3 0 9 1 12 4 12l8-1c6 0 9 5 9 10 0 6-4 11-12 11l-20-1-23 1c-8 0-12-5-12-11 0-5 3-10 8-10l7 1c2 0 3-3 3-12V35c0-10 0-13-3-13l-7 2c-5 0-8-6-8-11C0 7 4 2 14 2l21 2c16 0 22-2 28-2 8 0 19 3 26 9 8 6 11 16 11 26s-3 19-11 25c-8 7-18 9-29 9h-7z"/><path fill="#000" d="M137 75c-4 4-19 2-19 9 0 5 3 7 7 7 8 0 12-5 12-13v-3zm0-71l9-3c5 0 8 5 8 10s-6 8-11 9l-9 4-10 3c-4 0-7-5-7-8 0-5 6-7 9-9l11-6zm-13 47c0 7-6 10-12 10-7 0-13-5-13-12 0-9 9-17 30-17 7 0 16 1 22 4 8 5 9 11 9 22v25c0 6 1 7 3 7h3c4 0 7 3 7 7 0 8-8 11-14 11-7 0-14-2-16-9-7 6-15 9-24 9-12 0-24-7-24-21 0-32 42-15 42-34 0-5-4-7-9-7-2 0-4 0-4 3v2z"/><path fill="#000" d="M199 57c0 5 4 9 9 9s9-4 9-9-4-9-9-9-9 4-9 9zm9 60c12 0 16-3 16-8 0-3-3-5-11-5l-17-1c-3 1-6 3-6 7s3 7 18 7zm11-30c22 0 27 12 27 21 0 10-6 17-14 22-8 3-19 5-27 5-7 0-17-1-23-4-8-4-14-10-14-19s6-14 14-16c-7-1-11-6-11-13 0-8 4-12 11-15-3-3-5-7-5-12 0-15 16-23 30-23h5c0-10 9-15 18-15 7 0 15 4 15 12 0 5-3 8-8 8-3 0-5-1-6-4-1-1-1-2-3-2-3 0-3 3-3 5 9 3 14 11 14 20 0 7-4 14-10 18s-14 6-21 6c-6 0-10-1-16-4l-2 4c0 4 4 6 13 6h16z"/><path fill="#000" d="M281 16a13 13 0 1 1-26 0 13 13 0 0 1 26 0zm-23 44c0-7 0-9-3-9l-4 1c-5 0-6-4-6-8 0-5 2-10 8-10l11 2 13-2c3 0 4 2 4 7v39c0 9 1 10 2 10l2-1h3c4 0 6 4 6 8 0 5-3 9-9 9l-17-1-15 1c-6 0-8-4-8-9 0-4 1-8 6-8h2l2 1c2 0 3-3 3-10V60z"/><path fill="#000" d="M349 63c0-8-3-11-9-11-4 0-13 3-13 15v13c0 8 1 10 2 10l1-1h3c2 0 4 2 4 8 0 5-2 9-6 9l-17-1-16 1c-3 0-5-4-5-9 0-4 1-8 6-8h2l2 1c2 0 3-2 3-10V60c0-8-1-9-3-9l-4 1c-5 0-6-4-6-8 0-5 2-10 5-10l11 2 10-2c4 0 4 2 4 7v4c6-8 14-13 24-13 12 0 23 9 23 25v23c0 8 1 10 3 10l2-1h3c4 0 6 4 6 8 0 5-3 9-9 9l-17-1-13 1c-3 0-5-2-5-9s2-8 4-8h2l1 1c2 0 2-2 2-10V63z"/><path fill="#000" d="M424 75c-4 4-20 2-20 9 0 5 4 7 8 7 8 0 12-5 12-13v-3zm-14-24c0 7-6 10-11 10-7 0-13-5-13-12 0-9 9-17 30-17 7 0 16 1 22 4 7 5 9 11 9 22v25c0 6 1 7 2 7h4c4 0 6 3 6 7 0 8-7 11-14 11-6 0-13-2-15-9-7 6-15 9-24 9-12 0-24-7-24-21 0-32 42-15 42-34 0-5-5-7-9-7-2 0-5 0-5 3v2z"/><path fill="#ED1C24" d="M461 108h17V2h-17z"/><path fill="#000" d="M499 35c0-11-1-13-4-13l-7 2c-5 0-8-6-8-11 0-6 4-11 11-11l14 2 13-2c5 0 7 2 7 11v61c0 9 0 12 3 12l7-1c5 0 8 5 8 10 0 6-4 11-11 11l-20-1-23 1c-5 0-9-5-9-11 0-5 3-10 8-10l7 1c3 0 4-3 4-12V35z"/><path fill="#000" d="M597 30c0-7-8-10-13-10-4 0-8 1-11 3 2 3 3 5 3 8 0 9-8 14-16 14-9 0-15-8-15-16 0-22 23-29 40-29 20 0 39 9 39 31s-20 29-37 35c-8 2-22 6-22 16 3-5 8-8 15-8 6 0 11 3 15 6s8 6 12 6l5-2c-6-1-10-5-10-10 0-7 6-12 12-12 10 0 15 10 15 19 0 13-10 27-23 27-8 0-15-4-19-8-5-3-9-7-12-7-1 0-2 0-1 4 0 7-7 11-13 11-13 0-19-12-19-23 0-20 17-31 34-38 8-3 21-7 21-17"/></g></svg>