<svg xmlns="http://www.w3.org/2000/svg" width="400" height="200" viewBox="50 -100 200 200"><path d="M221 26c0-5-1-7-4-7-4 0-4 4-4 12s0 12 4 12c3 0 4-2 4-9h10c0 12-4 16-14 16-14 0-16-9-16-20s3-19 16-19c11 0 14 7 14 15h-10zm12 5c0-11 3-20 15-20 14 0 16 9 16 20s-3 19-16 19-15-8-15-19zm15-12c-3 0-4 3-4 12s1 12 4 12c4 0 5-3 5-12s-1-12-5-12zm20-7h10v5c2-3 5-6 9-6s8 1 9 6c3-4 5-6 10-6 6 0 9 4 9 11v27h-11V24c0-2-1-4-3-4s-4 2-4 5v24h-11V24c0-2-1-4-3-4s-4 2-4 5v24h-11V12z"/><path fill="#E0B500" d="M192 51c3 0 6-3 6-6a6 6 0 0 0-13 0 6 6 0 0 0 7 6z"/><path d="M32 12h11v5c1-3 5-6 9-6 3 0 7 1 9 6 3-4 5-6 9-6 6 0 10 4 10 11v27H69V24c0-2-2-4-4-4s-4 2-4 5v24H50V24c0-2-1-4-3-4s-4 2-4 5v24H32V12zM83 1h11v15h1c1-4 5-5 8-5 9 0 11 9 11 20 0 14-4 19-12 19-5 0-7-2-8-5v4H83V1zm15 41c4 0 4-5 4-11 0-7 0-11-4-11s-4 5-4 11c0 7 1 11 4 11zm19-42h11v8h-11V0zm0 12h11v37h-11V12zm18 8h-5v-8h5V2h11v10h5v8h-5v19c0 2 1 3 3 3h2v7a50 50 0 0 1-7 1c-7 0-9-1-9-10V20zm17 11c0-11 3-20 15-20 14 0 16 9 16 20s-3 19-16 19-15-8-15-19zm15-12c-3 0-4 3-4 12s1 12 4 12c4 0 5-3 5-12s-1-12-5-12zM29 41V22c0-7-4-10-11-10l7-11H15l-4 11-6 2c-2 2-4 5-4 10h10c0-3 1-5 4-5 2 0 3 1 3 3 0 3 0 4-4 5-3 0-7 1-9 3-3 1-5 5-5 9 0 8 4 11 10 11 4 0 7-1 9-5v4h11l-1-8zm-11-3c0 3-2 5-4 5s-3-2-3-5l1-4 6-3v7z"/></svg>