<svg xmlns="http://www.w3.org/2000/svg" viewBox="-350 -450 1256 1256"><circle cx="256" cy="256" r="256" fill="#e8eaf6"/><path d="M511 273c-6 101-72 187-163 222L183 330V182h238l90 91z" fill="#283593"/><path fill="#f2f9ff" d="M183 182h238v148H183z"/><path fill="#3f51b5" d="M183 190l9-8h-9z"/><path fill="#f44336" d="M194 203v-11h11l12-10h-13l-21 19v11z"/><g fill="#3f51b5"><path d="M218 192h12l11-10h-12zM194 225v-11l-11 10v11z"/></g><g fill="#f44336"><path d="M242 192h12l12-10h-13zM194 248v-11l-11 9v11z"/></g><g fill="#3f51b5"><path d="M194 270v-11l-11 10v11zM266 192h13l11-10h-12z"/></g><g fill="#f44336"><path d="M194 293v-11l-11 9v11zM291 192h12l12-10h-13z"/></g><g fill="#3f51b5"><path d="M315 192h13l11-10h-12zM194 315v-11l-11 10v11z"/></g><g fill="#f44336"><path d="M340 192h12l12-10h-13zM213 320h-12l-11 10h12z"/></g><g fill="#3f51b5"><path d="M238 320h-13l-11 10h12zM364 192h13l11-10h-12z"/></g><g fill="#f44336"><path d="M262 320h-12l-11 10h12zM389 192h12l12-10h-13z"/></g><g fill="#3f51b5"><path d="M287 320h-13l-11 10h12zM410 195v11l11-9v-11z"/></g><g fill="#f44336"><path d="M311 320h-12l-11 10h12zM410 218v11l11-10v-11z"/></g><g fill="#3f51b5"><path d="M336 320h-13l-11 10h12zM410 240v11l11-9v-11z"/></g><g fill="#f44336"><path d="M410 263v11l11-10v-11zM360 320h-12l-12 10h13z"/></g><g fill="#3f51b5"><path d="M410 285v11l11-9v-11zM385 320h-13l-11 10h12z"/></g><g fill="#f44336"><path d="M409 320h-12l-11 10h12zM421 298l-11 10v11l11-10z"/></g><path fill="#3f51b5" d="M421 321l-11 9h11z"/><path fill="#fff" d="M204 201h80v48h-80z"/><path fill="#3f51b5" d="M208 206h71v38h-71z"/><g fill="#3f51b5"><path d="M327 289h67v3h-67zM327 297h67v3h-67zM327 305h34v3h-34z"/></g><g fill="#fff"><path d="M91 296h84v7H91zM133 253h42v6h-42zM154 209h21v7h-21z"/></g></svg>