<svg xmlns="http://www.w3.org/2000/svg" width="250" height="150" viewBox="0 0 100 26"><path fill="#de1b2f" stroke-width=".1" d="M91.7.8A7.5 7.5 0 0 0 86.2 3c-.8.8-1.4 1.7-1.8 2.9-1.5 4.6 2.2 6.2 3.8 6.2.5 0 2-.1 3.1-1.1a5 5 0 0 0 1.8-3l-2.7 1a2.2 2.2 0 1 1-.1-.8 14 14 0 0 0 7.5-4.6 7.7 7.7 0 0 0-6-3zM62 .8l-4 4.8 1.4 1.3 6-3.7v-.3zm-42.3.8L19.5 3l.6.1c1 .3 1.4.6 1.4 2v15.4c0 2-.1 2.2-1.2 2.4l-.7.1v1.4H28V23h-.6c-1.1-.3-1.2-.5-1.2-2.5V1.6zm-7.4.3C4.7 1.9 1 7.1 1 13.9c0 5.8 3 11 10.7 11 2.4 0 4.9-.6 6.7-1.6l.2-5.2h-2.3l-.6 2c-.4 1.7-1.2 2.3-3.5 2.3-3.8 0-6-3-6-9 0-5.7 2.4-9 6.1-9 2 0 3.1.8 3.4 2.3l.4 2.4 2.2.3.3-5.7a12.8 12.8 0 0 0-6.3-1.8zM97 7.7h-1.3c-1 5.2-6.7 8.2-4.8 8.5a7.3 7.3 0 0 0 3.7-.5 7.7 7.7 0 0 0 5-7.7 14 14 0 0 0-2.6-.3zm-61 .3c-3.3 0-5.8 1.5-6.8 2.2l1 2a11 11 0 0 1 4.6-1.3c1.8 0 2.4 1 2.4 2.6v2c-3.7 0-8.7.1-8.7 4.9 0 1.8.7 4.4 4.4 4.4 2.5 0 3.8-1 4.5-2.1.3 1 1 2.1 3.4 2.1 1 0 1.8-.1 2.8-.4V23H43c-1-.2-1.2-.4-1.2-1.7v-7.2c0-4.8-1.8-6-5.9-6zm18.7 0c-1.7 0-3 1.2-4 3l-.3-2.3-.3-.2h-5.7v1.4l.6.2c1 .2 1.2.8 1.2 2v8.4c0 2 0 2.2-1.1 2.4l-.6.1v1.4h8.8V23l-1-.1c-1.2-.2-1.4-.4-1.4-2.4v-8c1-.5 2.5-.1 4.8 1.2h.4l.3-5.4c-.5-.2-1.1-.3-1.7-.3zm23.3 0c-2.2 0-3.9 1-5.2 2.5l-.3-1.8-.3-.2h-5.8l-.1 1.4.6.2c1.1.2 1.3.7 1.3 2v8.4c0 2-.1 2.2-1.2 2.4l-.5.1v1.4h7.9V23h-.4c-1-.3-1-.5-1-2.5v-8.6c.3-.2 1.3-.6 2.5-.6 1.3 0 2 .6 2 2.3v7c0 1.9 0 2.2-1 2.4H76v1.4h8V23h-.7c-1-.2-1.2-.5-1.2-2.5V13c0-3.5-1.6-5-4.2-5zm-20.7.5v1.4l.4.2c1 .2 1.3.6 1.3 2v8.4c0 2-.2 2.2-1.3 2.4l-.7.1v1.4h8.6V23h-.6c-1-.3-1.2-.5-1.2-2.5V8.7l-.3-.2zm-20.1 8.8v2.8c0 1.1-.9 1.7-2 1.7-1.3 0-2-.7-2-2.2 0-1.8 1.4-2.4 4-2.3z"/></svg>