<svg class="lds-gears" width="300" height="300" xmlns="http://www.w3.org/2000/svg" viewBox="0 0 100 100" preserveAspectRatio="xMidYMid"><g transform="translate(50 50)"><g transform="matrix(.6 0 0 .6 -19 -19)"><g transform="rotate(90)"><animateTransform attributeName="transform" type="rotate" values="0;360" keyTimes="0;1" dur="2s" begin="0s" repeatCount="indefinite"/><path d="M37-7h10V7H37a38 38 0 01-6 14l7 8-9 9-8-7a38 38 0 01-14 6v10H-7V37a38 38 0 01-14-6l-8 7-9-9 7-8a38 38 0 01-6-14h-10V-7h10a38 38 0 016-14l-7-8 9-9 8 7a38 38 0 0114-6v-10H7v10a38 38 0 0114 6l8-7 9 9-7 8a38 38 0 016 14M0-23a23 23 0 100 46 23 23 0 100-46" fill="#3f51b5"/></g></g><g transform="matrix(.6 0 0 .6 19 19)"><g transform="rotate(248)"><animateTransform attributeName="transform" type="rotate" values="360;0" keyTimes="0;1" dur="2s" begin="-0.125s" repeatCount="indefinite"/><path d="M37-7h10V7H37a38 38 0 01-6 14l7 8-9 9-8-7a38 38 0 01-14 6v10H-7V37a38 38 0 01-14-6l-8 7-9-9 7-8a38 38 0 01-6-14h-10V-7h10a38 38 0 016-14l-7-8 9-9 8 7a38 38 0 0114-6v-10H7v10a38 38 0 0114 6l8-7 9 9-7 8a38 38 0 016 14M0-23a23 23 0 100 46 23 23 0 100-46" fill="#9fa8da"/></g></g></g></svg>