<svg xmlns="http://www.w3.org/2000/svg" width="434" height="45" style="background-color:#ffffff00" version="1" viewBox="75 -150 275 275"><g fill="#221e1f"><path d="M0 44V2h11v34h17v8H0zM48 40c-2 3-5 4-9 4-5 0-10-3-10-9 0-7 5-10 12-10l7 1v-3c0-2-2-4-5-4-4 0-6 2-7 3h-5v-8l14-2c9 0 13 3 13 10v14l1 2h2v5l-6 1c-4 0-6-1-7-4zm0-4v-5l-4-1c-3 0-5 2-5 4 0 3 2 4 4 4l5-2zM65 2h15c11 0 17 5 17 14s-6 13-18 13h-3v15H65V2zm11 20h3c5 0 6-2 6-6s-1-6-6-6h-3v12zM97 28c0-10 7-16 16-16s17 6 17 16-8 16-17 16-16-6-16-16zm22 0c0-6-2-9-6-9-3 0-6 3-6 9 0 7 3 9 6 9 4 0 6-2 6-9zM133 44V2h6c4 0 4 1 4 6v36h-10zM148 44V13h7c3 0 3 1 3 6v25h-10zm1-33V9l2-7h11v3l-6 6h-7zM162 13h3V5h10v8h6v6h-6v15c0 2 2 3 4 3h2v6l-6 1c-6 0-10-2-10-9V19h-3v-6zM184 6c0-3 2-5 6-5 3 0 5 2 5 5s-2 5-5 5c-4 0-6-2-6-5zm0 38V13h7c3 0 4 1 4 6v25h-11zM198 28c0-10 7-16 17-16l10 2v8h-4l-6-2c-4 0-7 2-7 8s3 9 7 9l6-2h4v6c-2 2-6 3-11 3-10 0-16-6-16-16zM245 40c-2 3-5 4-9 4-5 0-10-3-10-9 0-7 5-10 13-10l6 1v-3c0-2-2-4-5-4-4 0-6 2-7 3h-4v-8l13-2c9 0 13 3 13 10v14l2 2h1v5l-6 1c-4 0-6-1-7-4zm0-4v-5l-4-1c-3 0-5 2-5 4 0 3 2 4 4 4l5-2z"/></g><g fill="#221e1f"><path d="M260 23c0-14 9-21 20-21 10 0 20 7 20 21s-10 21-20 21c-11 0-20-7-20-21zm32 0c0-11-5-16-12-16-8 0-13 5-13 16s5 17 13 17c7 0 12-6 12-17zM302 40h2l2-2V18l-2-1h-2v-4h9l1 4c3-2 8-5 12-5 5 0 8 2 8 8v18l2 2h2v4h-14v-4h4V22c0-4-2-5-5-5l-9 3v20h5v4h-15v-4zM338 40h2l1-2V8l-1-2h-3V2h10l1 2v34l1 2h3v4h-14v-4zM353 40h3l1-2V18l-1-1h-3v-4h9c1 0 2 0 2 2v23l1 2h2v4h-14v-4zm4-34c0-2 1-4 3-4s4 2 4 4-2 3-4 3-3-1-3-3zM369 40h2l2-2V18l-2-1h-2v-4h9l1 4c3-2 8-5 13-5 4 0 8 2 8 8v18l1 2h2v4h-14v-4h4V22c0-4-1-5-5-5l-9 3v20h5v4h-15v-4zM405 28c0-9 6-16 15-16s14 5 14 15v2h-22c0 7 3 11 9 11 5 0 7-2 8-4h4v5c-2 1-6 3-12 3-11 0-16-6-16-16zm22-3c0-6-2-9-7-9-4 0-7 3-8 9h15z"/></g></svg>