<svg xmlns="http://www.w3.org/2000/svg" id="Layer_1" version="1" viewBox="-50 -300 1000 600"><style>.st0{fill:#000}</style><path d="M40 40h15V24H39l-2-2-1-17-16 2-2 15-2 2H7L5 39h11l2 2v59c0 15 15 17 20 17h1l11-2v-15c-6 0-9-1-10-3-2-3-2-6-2-10V41l2-1zM106 27c-28 0-42 14-42 44 0 31 16 46 48 46l29-2V99l-27 3c-20 0-30-7-30-22l1-1h61V69c1-28-13-42-40-42zm19 39H86l-2-2c1-15 9-22 22-22 14 0 21 7 21 21 0 0 1 3-2 3zM162 117h20V5h-20zM238 27c-10 0-21 2-33 4v15l33-3c13 0 19 4 19 14v8h-2l-18-1c-26 0-39 8-39 26s10 27 32 27c9 0 18-3 26-8h2l8 8h11V56c0-19-13-28-39-29zm19 68l-1 1c-6 5-14 8-22 8-11 0-16-5-16-14s6-14 19-14l19 2 1 2v15zM399 28c-10 0-19 4-29 12l-1 1-1-1c-4-8-12-12-23-12s-20 4-28 13h-2l-1-1-3-12h-15v89h20V54l1-1c6-7 13-10 20-10s15 3 15 18v56h20V54l1-1c6-6 14-10 21-10 10 0 16 6 16 17v57h20V61c0-22-10-33-31-33zM113 18h-10-1v-1l7-12h17l-1 1-11 12h-1z" class="st0"/><g><path d="M492 64l-4-9h-12l-3 9h-6l12-33h6l12 33h-5zm-5-14l-3-9-1-3-1-2-2 6-3 8h10zM516 46h12v16l-6 2h-6c-5 0-9-1-11-4s-4-7-4-13c0-5 1-9 4-12s8-4 13-4c3 0 6 0 10 2l-2 4-8-2c-4 0-6 1-8 4-2 2-3 5-3 9s0 7 2 9 5 3 8 3l6-1v-8h-7v-5zM556 64h-19V31h19v5h-13v8h12v5h-12v10h13v5zM592 64h-7l-16-26v26h-5V31h7l16 26v-4-22h5v33zM616 35c-3 0-6 1-7 3l-3 9 2 9c2 3 4 4 8 4l4-1 4-1v5l-9 1c-5 0-8-1-11-4s-4-7-4-12l2-9c1-3 3-5 5-6a19 19 0 0 1 18 0l-2 4-3-1-4-1zM632 64V31h6v33h-6zM669 64l-4-9h-12l-3 9h-6l12-33h6l12 33h-5zm-5-14l-3-9-1-3-1-2-1 6-3 8h9zM722 64h-6l-16-26v26h-5V31h7l16 26v-4-22h4v33zM754 64l-4-9h-12l-3 9h-6l12-33h6l12 33h-5zm-5-14l-3-9-1-3-1-2-2 6-3 8h10zM778 35c-3 0-5 1-7 3-2 3-2 6-2 9 0 4 0 7 2 9 2 3 4 4 7 4l4-1 4-1v5l-8 1c-5 0-9-1-11-4-3-3-4-7-4-12 0-4 0-7 2-9 1-3 3-5 5-6a19 19 0 0 1 18 0l-2 4-4-1-4-1zM795 64V31h5v33h-5zM840 47c0 6-2 10-4 13-3 3-7 4-12 4s-8-1-11-4-4-7-4-13 1-9 4-12 6-5 11-5 9 2 12 5c2 3 4 7 4 12zm-25 0l2 9c2 2 4 3 7 3 4 1 6 0 8-3l2-9-2-9c-2-2-4-3-8-3-3 0-5 1-7 3s-2 5-2 9zM875 64h-6l-16-26v26h-5V31h7l16 26v-4-22h4v33zM907 64l-4-9h-12l-3 9h-6l12-33h6l12 33h-5zm-5-14l-3-9-1-3-1-2-2 6-3 8h10zM919 64V31h5v28h14v5h-19zM498 99c0 5-2 10-5 12s-7 5-13 5h-9V83h10c6 0 10 1 13 4 2 3 4 7 4 12zm-6 0c0-8-4-11-11-11h-4v23h3c8 0 12-4 12-12zM525 116h-19V83h19v5h-13v8h12v5h-12v10h13v5zM576 116h-7l-16-26v26h-5V83h7l16 26v-4-22h5v33zM615 99c0 6-2 10-4 13-3 3-7 4-12 4-4 0-8-1-11-4s-4-7-4-13c0-5 1-9 4-12s6-5 11-5c5 1 9 2 12 5 2 3 4 7 4 12zm-25 0l2 9c2 2 4 3 7 3 4 0 6-1 8-3l2-9-2-9c-2-2-4-3-8-3-3 0-5 1-7 3l-2 9zM634 116h-5V88h-10v-5h25v5h-10v28zM651 116V83h5v33h-5zM680 87c-3 0-5 1-7 3l-3 9c0 4 1 7 3 9 2 3 4 4 7 4l4-1 4-1v5l-8 1c-5 0-9-1-11-4-3-3-4-7-4-13 0-3 0-6 2-8 1-3 3-5 5-6a19 19 0 0 1 18 0l-2 4-4-1-4-1zM697 116V83h5v33h-5zM733 116l-3-9h-12l-4 9h-5l12-33h6l12 33h-6zm-4-14l-3-9-1-3-1-3-2 7-3 8h10zM765 107c0 3-1 5-3 7l-8 2-10-2v-5l5 2 5 1 5-2 1-3-1-3-6-3c-3-1-5-2-6-4l-2-6 3-6c2-2 4-2 8-2 3 0 6 0 9 2l-2 4-8-2-4 2-1 3 1 2 2 1 4 3 5 2 3 3v4z" class="st0"/></g></svg>