<svg version="1" viewBox="-375 -150 1256 1256" xmlns="http://www.w3.org/2000/svg"><path d="M512 256a256 256 0 1 1-512 0 256 256 0 0 1 512 0z" fill="#e8eaf6"/><path d="M512 271L368 127l-10 3-9 2-44 11a10 10 0 0 0-6 14l1 2 1 1h1l20 20a348 348 0 0 1-186 103 10 10 0 0 0-6 16l1 1h1l34 34c-21 1-38 7-38 15v21l2 4 2 2 136 136c131-6 236-111 244-241z" fill="#64b5f6"/><path d="M375 360c-7-3-18-5-31-5-12 0-23 2-30 5h-9v10c0 8 18 15 39 15 22 0 40-7 40-15v-10h-9z" fill="#5D6D7E"/><path d="M305 360v8c0 8 18 15 39 15 22 0 40-7 40-15v-8h-79z" fill="#B8D1E6"/><path d="M305 360v8c0 8 18 15 39 15 22 0 40-7 40-15v-8h-79z" fill="#B8D1E6"/><path d="M384 360c0 9-18 15-40 15-21 0-39-6-39-15 0-8 18-15 39-15 22 0 40 7 40 15z" fill="#B8D1E6"/><path d="M344 374c-22 0-37-7-37-14 0-6 15-13 37-13 23 0 38 7 38 13 0 7-15 14-38 14z" fill="#F2F9FF"/><path d="M342 369l-14-3 4-2 10 2v-5c-6 0-13-1-13-4s5-5 13-5v-2h6v2l12 2-4 2-8-1v4c6 0 13 1 13 5 0 2-4 4-13 5v2h-6v-2zm0-11v-4l-5 2c0 1 2 2 5 2zm6 4v4c4 0 6-1 6-2l-6-2z" fill="#B8D1E6"/><g fill="#F2F9FF"><path d="M307 363v10l3 2v-9l-3-3zM378 366v10l3-2v-10l-3 2zM312 367v9l3 2v-9l-3-2zM317 370v9h3v-9h-3z"/></g><path d="M375 349c-7-3-18-5-31-5-12 0-23 2-30 5h-9v10c0 8 18 15 39 15 22 0 40-7 40-15v-10h-9z" fill="#5D6D7E"/><path d="M305 349v8c0 8 18 15 39 15 22 0 40-7 40-15v-8h-79z" fill="#B8D1E6"/><path d="M305 349v8c0 8 18 15 39 15 22 0 40-7 40-15v-8h-79z" fill="#B8D1E6"/><path d="M384 349c0 9-18 15-40 15-21 0-39-6-39-15 0-8 18-15 39-15 22 0 40 7 40 15z" fill="#B8D1E6"/><path d="M344 363c-22 0-37-7-37-14 0-6 15-13 37-13 23 0 38 7 38 13 0 7-15 14-38 14z" fill="#F2F9FF"/><path d="M342 358l-14-3 4-2 10 2v-5c-6 0-13-1-13-4s5-5 13-5v-2h6v2l12 2-4 2-8-1v4c6 0 13 1 13 5 0 2-4 4-13 5v2h-6v-2zm0-11v-4l-5 2c0 1 2 2 5 2zm6 4v4c4 0 6-1 6-2l-6-2z" fill="#B8D1E6"/><g fill="#F2F9FF"><path d="M307 352v10l3 2v-9l-3-3zM378 355v10l3-2v-10l-3 2zM312 356v9l3 2v-9l-3-2zM317 358v9l3 1v-9l-3-1z"/></g><path d="M375 338c-7-3-18-5-31-5-12 0-23 2-30 5h-9v10c0 8 18 15 39 15 22 0 40-7 40-15v-10h-9z" fill="#5D6D7E"/><path d="M305 338v8c0 8 18 15 39 15 22 0 40-7 40-15v-8h-79z" fill="#B8D1E6"/><path d="M305 338v8c0 8 18 15 39 15 22 0 40-7 40-15v-8h-79z" fill="#B8D1E6"/><path d="M384 338c0 9-18 15-40 15-21 0-39-6-39-15 0-8 18-15 39-15 22 0 40 7 40 15z" fill="#B8D1E6"/><path d="M344 352c-22 0-37-7-37-14 0-6 15-13 37-13 23 0 38 7 38 13 0 7-15 14-38 14z" fill="#F2F9FF"/><path d="M342 347l-14-3 4-2 10 2v-5c-6 0-13-1-13-4s5-5 13-5v-2h6v2l12 2-4 2-8-1v4c6 0 13 1 13 5 0 2-4 4-13 5v2h-6v-2zm0-11v-4l-5 2c0 1 2 2 5 2zm6 4v4c4 0 6-1 6-2l-6-2z" fill="#B8D1E6"/><g fill="#F2F9FF"><path d="M307 341v10l3 2v-9l-3-3zM378 344v9l3-2v-9l-3 2zM312 345v9l3 2v-9l-3-2zM317 347v9l3 1v-9l-3-1z"/></g><path d="M375 327c-7-3-18-5-31-5-12 0-23 2-30 5h-9v10c0 8 18 15 39 15 22 0 40-7 40-15v-10h-9z" fill="#5D6D7E"/><path d="M305 327v8c0 8 18 15 39 15 22 0 40-7 40-15v-8h-79z" fill="#B8D1E6"/><path d="M305 327v8c0 8 18 15 39 15 22 0 40-7 40-15v-8h-79z" fill="#B8D1E6"/><path d="M384 327c0 8-18 15-40 15-21 0-39-7-39-15s18-15 39-15c22 0 40 7 40 15z" fill="#B8D1E6"/><path d="M344 341c-22 0-37-7-37-14 0-6 15-13 37-13 23 0 38 7 38 13 0 7-15 14-38 14z" fill="#F2F9FF"/><path d="M342 336l-14-3 4-2 10 2v-5c-6 0-13-1-13-4s5-5 13-5v-2h6v2l12 2-4 2-8-2v5c6 0 13 1 13 5 0 2-4 4-13 5v2h-6v-2zm0-11v-4l-5 2c0 1 2 2 5 2zm6 4v4c4 0 6-1 6-2l-6-2z" fill="#B8D1E6"/><g fill="#F2F9FF"><path d="M307 330v10l3 2v-9l-3-3zM378 333v9l3-2v-9l-3 2zM312 334v9l3 2v-9l-3-2zM317 336v9l3 1v-9l-3-1z"/></g><path d="M375 316c-7-3-18-5-31-5-12 0-23 2-30 5h-9v10c0 8 18 15 39 15 22 0 40-7 40-15v-10h-9z" fill="#5D6D7E"/><path d="M305 316v8c0 8 18 15 39 15 22 0 40-7 40-15v-8h-79z" fill="#B8D1E6"/><path d="M305 316v8c0 8 18 15 39 15 22 0 40-7 40-15v-8h-79z" fill="#B8D1E6"/><path d="M384 316c0 8-18 15-40 15-21 0-39-7-39-15s18-15 39-15c22 0 40 7 40 15z" fill="#B8D1E6"/><path d="M344 330c-22 0-37-7-37-14s15-13 37-13c23 0 38 7 38 13 0 7-15 14-38 14z" fill="#F2F9FF"/><path d="M342 325l-14-3 4-2 10 2v-5c-6 0-13-1-13-4s5-5 13-5v-2h6v2l12 2-4 2-8-2v5c6 0 13 1 13 5 0 2-4 4-13 5v2h-6v-2zm0-11v-4c-3 0-5 1-5 2s2 2 5 2zm6 4v4c4 0 6-1 6-2l-6-2z" fill="#B8D1E6"/><g fill="#F2F9FF"><path d="M307 319v10l3 2v-9l-3-3zM378 322v9l3-2v-9l-3 2zM312 323v9l3 2v-10l-3-1zM317 325v9l3 1v-9l-3-1z"/></g><path d="M375 305c-7-3-18-5-31-5-12 0-23 2-30 5h-9v10c0 8 18 15 39 15 22 0 40-7 40-15v-10h-9z" fill="#5D6D7E"/><path d="M305 305v7c0 9 18 16 39 16 22 0 40-7 40-16v-7h-79z" fill="#B8D1E6"/><path d="M305 305v7c0 9 18 16 39 16 22 0 40-7 40-16v-7h-79z" fill="#B8D1E6"/><path d="M384 305c0 8-18 15-40 15-21 0-39-7-39-15s18-15 39-15c22 0 40 7 40 15z" fill="#B8D1E6"/><path d="M344 319c-22 0-37-7-37-14 0-6 15-13 37-13 23 0 38 7 38 13s-15 14-38 14z" fill="#F2F9FF"/><path d="M342 313l-14-2 4-2 10 2v-5c-6 0-13-1-13-5 0-2 5-4 13-4v-2h6v2l12 2-4 2-8-2v5c6 0 13 1 13 4s-4 5-13 5v3h-6v-3zm0-10v-4c-3 0-5 1-5 2s2 2 5 2zm6 4v4c4 0 6-1 6-2l-6-2z" fill="#B8D1E6"/><g fill="#F2F9FF"><path d="M307 308v10l3 2v-9l-3-3zM378 311v9l3-2v-9l-3 2zM312 312v9l3 2v-10l-3-1zM317 314v9l3 1v-9l-3-1z"/></g><path d="M375 294c-7-3-18-6-31-6-12 0-23 3-30 6h-9v10c0 8 18 15 39 15 22 0 40-7 40-15v-10h-9z" fill="#5D6D7E"/><path d="M305 294v7c0 9 18 15 39 15 22 0 40-6 40-15v-7h-79z" fill="#B8D1E6"/><path d="M305 294v7c0 9 18 15 39 15 22 0 40-6 40-15v-7h-79z" fill="#B8D1E6"/><path d="M384 294c0 8-18 15-40 15-21 0-39-7-39-15s18-15 39-15c22 0 40 7 40 15z" fill="#B8D1E6"/><path d="M344 308c-22 0-37-7-37-14 0-6 15-13 37-13 23 0 38 7 38 13s-15 14-38 14z" fill="#F2F9FF"/><path d="M342 302l-14-2 4-2 10 2v-5c-6 0-13-1-13-5 0-2 5-4 13-4v-3h6v3l12 2-4 2-8-2v5c6 0 13 1 13 4s-4 5-13 5v3h-6v-3zm0-10v-4c-3 0-5 1-5 2s2 2 5 2zm6 4v4c4 0 6-1 6-2l-6-2z" fill="#B8D1E6"/><g fill="#F2F9FF"><path d="M307 297v10l3 2v-9l-3-3zM378 300v9l3-2v-9l-3 2zM312 301v9l3 1v-9l-3-1zM317 303v9l3 1v-9l-3-1z"/></g><path d="M375 283c-7-3-18-6-31-6-12 0-23 3-30 6h-9v9c0 9 18 16 39 16 22 0 40-7 40-16v-9h-9z" fill="#5D6D7E"/><path d="M305 283v7c0 9 18 15 39 15 22 0 40-6 40-15v-7h-79z" fill="#B8D1E6"/><path d="M305 283v7c0 9 18 15 39 15 22 0 40-6 40-15v-7h-79z" fill="#B8D1E6"/><path d="M384 283c0 8-18 15-40 15-21 0-39-7-39-15s18-15 39-15c22 0 40 7 40 15z" fill="#B8D1E6"/><path d="M344 296c-22 0-37-6-37-13 0-6 15-13 37-13 23 0 38 7 38 13s-15 13-38 13z" fill="#F2F9FF"/><path d="M342 291l-14-2 4-2 10 2v-5c-6-1-13-1-13-5 0-2 5-4 13-4v-3h6v3l12 2-4 2-8-2v5c6 0 13 1 13 4s-4 5-13 5v3h-6v-3zm0-10v-4c-3 0-5 1-5 2s2 2 5 2zm6 4v4c4 0 6-1 6-2l-6-2z" fill="#B8D1E6"/><g fill="#F2F9FF"><path d="M307 286v10l3 2v-9l-3-3zM378 289v9l3-2v-9l-3 2zM312 290v9l3 1v-9l-3-1zM317 292v9l3 1v-9l-3-1z"/></g><path d="M375 272c-7-3-18-6-31-6-12 0-23 3-30 6h-9v9c0 9 18 15 39 15 22 0 40-6 40-15v-9h-9z" fill="#5D6D7E"/><path d="M305 272v7c0 9 18 15 39 15 22 0 40-6 40-15v-7h-79z" fill="#B8D1E6"/><path d="M305 272v7c0 9 18 15 39 15 22 0 40-6 40-15v-7h-79z" fill="#B8D1E6"/><path d="M384 272c0 8-18 15-40 15-21 0-39-7-39-15s18-15 39-15c22 0 40 7 40 15z" fill="#B8D1E6"/><path d="M344 285c-22 0-37-7-37-13 0-7 15-13 37-13 23 0 38 6 38 13 0 6-15 13-38 13z" fill="#F2F9FF"/><path d="M342 280l-14-2 4-2 10 2v-5c-6-1-13-1-13-5 0-2 5-4 13-4v-3h6v3l12 2-4 2-8-2v5c6 0 13 1 13 4s-4 5-13 5v3h-6v-3zm0-10v-4c-3 0-5 1-5 2s2 2 5 2zm6 4v4c4 0 6-1 6-2l-6-2z" fill="#B8D1E6"/><g fill="#F2F9FF"><path d="M307 275v10l3 2v-10l-3-2zM378 278v9l3-2v-9l-3 2zM312 279v9l3 1v-9l-3-1zM317 281v9l3 1v-9l-3-1z"/></g><path d="M375 261c-7-3-18-6-31-6-12 0-23 3-30 6h-9v9c0 9 18 15 39 15 22 0 40-6 40-15v-9h-9z" fill="#5D6D7E"/><path d="M305 261v7c0 9 18 15 39 15 22 0 40-6 40-15v-7h-79z" fill="#B8D1E6"/><path d="M305 261v7c0 9 18 15 39 15 22 0 40-6 40-15v-7h-79z" fill="#B8D1E6"/><path d="M384 261c0 8-18 15-40 15-21 0-39-7-39-15s18-15 39-15c22 0 40 7 40 15z" fill="#B8D1E6"/><path d="M344 274c-22 0-37-7-37-13 0-7 15-14 37-14 23 0 38 7 38 14 0 6-15 13-38 13z" fill="#F2F9FF"/><path d="M342 269l-14-2 4-2 10 2v-5c-6-1-13-1-13-5 0-2 5-4 13-4v-3h6v3l12 2-4 2-8-2v4c6 1 13 2 13 5s-4 5-13 5v3h-6v-3zm0-10v-4c-3 0-5 1-5 2s2 2 5 2zm6 4v4c4 0 6-1 6-2l-6-2z" fill="#5D6D7E"/><g fill="#F2F9FF"><path d="M307 264v10l3 2v-10l-3-2zM378 267v9l3-2v-10l-3 3zM312 268v9l3 1v-9l-3-1zM317 270v9l3 1v-9l-3-1z"/></g><path d="M287 360c-8-3-19-5-31-5s-23 2-31 5h-8v10c0 8 17 15 39 15s39-7 39-15v-10h-8z" fill="#5D6D7E"/><path d="M217 360v8c0 8 17 15 39 15s39-7 39-15v-8h-78z" fill="#B8D1E6"/><path d="M217 360v8c0 8 17 15 39 15s39-7 39-15v-8h-78z" fill="#B8D1E6"/><path d="M295 360c0 9-17 15-39 15s-39-6-39-15c0-8 17-15 39-15s39 7 39 15z" fill="#B8D1E6"/><path d="M256 374c-23 0-38-7-38-14 0-6 15-13 38-13s38 7 38 13c0 7-16 14-38 14z" fill="#F2F9FF"/><path d="M254 369l-15-3 4-2 11 2v-5c-7 0-13-1-13-4s5-5 13-5v-2h5v2l13 2-4 2-9-1v4c7 0 14 1 14 5 0 2-4 4-14 5v2h-5v-2zm0-11v-4l-6 2 6 2zm5 4v4c5 0 6-1 6-2s-2-2-6-2z" fill="#B8D1E6"/><g fill="#F2F9FF"><path d="M219 363v10l3 2v-9l-3-3zM290 366v10l2-2v-10l-2 2zM224 367v9l3 2v-9l-3-2zM229 370v9h3v-9h-3z"/></g><path d="M287 349c-8-3-19-5-31-5s-23 2-31 5h-8v10c0 8 17 15 39 15s39-7 39-15v-10h-8z" fill="#5D6D7E"/><path d="M217 349v8c0 8 17 15 39 15s39-7 39-15v-8h-78z" fill="#B8D1E6"/><path d="M217 349v8c0 8 17 15 39 15s39-7 39-15v-8h-78z" fill="#B8D1E6"/><path d="M295 349c0 9-17 15-39 15s-39-6-39-15c0-8 17-15 39-15s39 7 39 15z" fill="#B8D1E6"/><path d="M256 363c-23 0-38-7-38-14 0-6 15-13 38-13s38 7 38 13c0 7-16 14-38 14z" fill="#F2F9FF"/><path d="M254 358l-15-3 4-2 11 2v-5c-7 0-13-1-13-4s5-5 13-5v-2h5v2l13 2-4 2-9-1v4c7 0 14 1 14 5 0 2-4 4-14 5v2h-5v-2zm0-11v-4l-6 2 6 2zm5 4v4c5 0 6-1 6-2s-2-2-6-2z" fill="#B8D1E6"/><g fill="#F2F9FF"><path d="M219 352v10l3 2v-9l-3-3zM290 355v10l2-2v-10l-2 2zM224 356v9l3 2v-9l-3-2zM229 358v9l3 1v-9l-3-1z"/></g><path d="M287 338c-8-3-19-5-31-5s-23 2-31 5h-8v10c0 8 17 15 39 15s39-7 39-15v-10h-8z" fill="#5D6D7E"/><path d="M217 338v8c0 8 17 15 39 15s39-7 39-15v-8h-78z" fill="#B8D1E6"/><path d="M217 338v8c0 8 17 15 39 15s39-7 39-15v-8h-78z" fill="#B8D1E6"/><path d="M295 338c0 9-17 15-39 15s-39-6-39-15c0-8 17-15 39-15s39 7 39 15z" fill="#B8D1E6"/><path d="M256 352c-23 0-38-7-38-14 0-6 15-13 38-13s38 7 38 13c0 7-16 14-38 14z" fill="#F2F9FF"/><path d="M254 347l-15-3 4-2 11 2v-5c-7 0-13-1-13-4s5-5 13-5v-2h5v2l13 2-4 2-9-1v4c7 0 14 1 14 5 0 2-4 4-14 5v2h-5v-2zm0-11v-4l-6 2 6 2zm5 4v4c5 0 6-1 6-2s-2-2-6-2z" fill="#B8D1E6"/><g fill="#F2F9FF"><path d="M219 341v10l3 2v-9l-3-3zM290 344v9l2-2v-9l-2 2zM224 345v9l3 2v-9l-3-2zM229 347v9l3 1v-9l-3-1z"/></g><path d="M287 327c-8-3-19-5-31-5s-23 2-31 5h-8v10c0 8 17 15 39 15s39-7 39-15v-10h-8z" fill="#5D6D7E"/><path d="M217 327v8c0 8 17 15 39 15s39-7 39-15v-8h-78z" fill="#B8D1E6"/><path d="M217 327v8c0 8 17 15 39 15s39-7 39-15v-8h-78z" fill="#B8D1E6"/><path d="M295 327c0 8-17 15-39 15s-39-7-39-15 17-15 39-15 39 7 39 15z" fill="#B8D1E6"/><path d="M256 341c-23 0-38-7-38-14 0-6 15-13 38-13s38 7 38 13c0 7-16 14-38 14z" fill="#F2F9FF"/><path d="M254 336l-15-3 4-2 11 2v-5c-7 0-13-1-13-4s5-5 13-5v-2h5v2l13 2-4 2-9-2v5c7 0 14 1 14 5 0 2-4 4-14 5v2h-5v-2zm0-11v-4l-6 2 6 2zm5 4v4c5 0 6-1 6-2s-2-2-6-2z" fill="#B8D1E6"/><g fill="#F2F9FF"><path d="M219 330v10l3 2v-9l-3-3zM290 333v9l2-2v-9l-2 2zM224 334v9l3 2v-9l-3-2zM229 336v9l3 1v-9l-3-1z"/></g><path d="M287 316c-8-3-19-5-31-5s-23 2-31 5h-8v10c0 8 17 15 39 15s39-7 39-15v-10h-8z" fill="#5D6D7E"/><path d="M217 316v8c0 8 17 15 39 15s39-7 39-15v-8h-78z" fill="#B8D1E6"/><path d="M217 316v8c0 8 17 15 39 15s39-7 39-15v-8h-78z" fill="#B8D1E6"/><path d="M295 316c0 8-17 15-39 15s-39-7-39-15 17-15 39-15 39 7 39 15z" fill="#B8D1E6"/><path d="M256 330c-23 0-38-7-38-14s15-13 38-13 38 7 38 13c0 7-16 14-38 14z" fill="#F2F9FF"/><path d="M254 325l-15-3 4-2 11 2v-5c-7 0-13-1-13-4s5-5 13-5v-2h5v2l13 2-4 2-9-2v5c7 0 14 1 14 5 0 2-4 4-14 5v2h-5v-2zm0-11v-4c-4 0-6 1-6 2l6 2zm5 4v4c5 0 6-1 6-2s-2-2-6-2z" fill="#B8D1E6"/><g fill="#F2F9FF"><path d="M219 319v10l3 2v-9l-3-3zM290 322v9l2-2v-9l-2 2zM224 323v9l3 2v-10l-3-1zM229 325v9l3 1v-9l-3-1z"/></g><path d="M287 305c-8-3-19-5-31-5s-23 2-31 5h-8v10c0 8 17 15 39 15s39-7 39-15v-10h-8z" fill="#5D6D7E"/><path d="M217 305v7c0 9 17 16 39 16s39-7 39-16v-7h-78z" fill="#B8D1E6"/><path d="M217 305v7c0 9 17 16 39 16s39-7 39-16v-7h-78z" fill="#B8D1E6"/><path d="M295 305c0 8-17 15-39 15s-39-7-39-15 17-15 39-15 39 7 39 15z" fill="#B8D1E6"/><path d="M256 319c-23 0-38-7-38-14 0-6 15-13 38-13s38 7 38 13-16 14-38 14z" fill="#F2F9FF"/><path d="M254 313l-15-2 4-2 11 2v-5c-7 0-13-1-13-5 0-2 5-4 13-4v-2h5v2l13 2-4 2-9-2v5c7 0 14 1 14 4s-4 5-14 5v3h-5v-3zm0-10v-4c-4 0-6 1-6 2l6 2zm5 4v4c5 0 6-1 6-2s-2-2-6-2z" fill="#5D6D7E"/><g fill="#F2F9FF"><path d="M219 308v10l3 2v-9l-3-3zM290 311v9l2-2v-9l-2 2zM224 312v9l3 2v-10l-3-1zM229 314v9l3 1v-9l-3-1z"/></g><path d="M198 360c-7-3-18-5-30-5-13 0-24 2-31 5h-9v10c0 8 18 15 40 15 21 0 39-7 39-15v-10h-9z" fill="#5D6D7E"/><path d="M128 360v8c0 8 18 15 40 15 21 0 39-7 39-15v-8h-79z" fill="#B8D1E6"/><path d="M128 360v8c0 8 18 15 40 15 21 0 39-7 39-15v-8h-79z" fill="#B8D1E6"/><path d="M207 360c0 9-18 15-39 15-22 0-40-6-40-15 0-8 18-15 40-15 21 0 39 7 39 15z" fill="#B8D1E6"/><path d="M168 374c-23 0-38-7-38-14 0-6 15-13 38-13 22 0 37 7 37 13 0 7-15 14-37 14z" fill="#F2F9FF"/><path d="M166 369l-15-3 4-2 11 2v-5c-7 0-14-1-14-4s5-5 14-5v-2h5v2l13 2-5 2-8-1v4c6 0 14 1 14 5 0 2-5 4-14 5v2h-5v-2zm0-11v-4l-6 2c0 1 2 2 6 2zm5 4v4c4 0 6-1 6-2l-6-2z" fill="#B8D1E6"/><g fill="#F2F9FF"><path d="M131 363v10l2 2v-9l-2-3zM201 366v10l3-2v-10l-3 2zM136 367v9l2 2v-9l-2-2zM140 370v9h3v-9h-3z"/></g><path d="M198 349c-7-3-18-5-30-5-13 0-24 2-31 5h-9v10c0 8 18 15 40 15 21 0 39-7 39-15v-10h-9z" fill="#5D6D7E"/><path d="M128 349v8c0 8 18 15 40 15 21 0 39-7 39-15v-8h-79z" fill="#B8D1E6"/><path d="M128 349v8c0 8 18 15 40 15 21 0 39-7 39-15v-8h-79z" fill="#B8D1E6"/><path d="M207 349c0 9-18 15-39 15-22 0-40-6-40-15 0-8 18-15 40-15 21 0 39 7 39 15z" fill="#B8D1E6"/><path d="M168 363c-23 0-38-7-38-14 0-6 15-13 38-13 22 0 37 7 37 13 0 7-15 14-37 14z" fill="#F2F9FF"/><path d="M166 358l-15-3 4-2 11 2v-5c-7 0-14-1-14-4s5-5 14-5v-2h5v2l13 2-5 2-8-1v4c6 0 14 1 14 5 0 2-5 4-14 5v2h-5v-2zm0-11v-4l-6 2c0 1 2 2 6 2zm5 4v4c4 0 6-1 6-2l-6-2z" fill="#5D6D7E"/><g fill="#F2F9FF"><path d="M131 352v10l2 2v-9l-2-3zM201 355v10l3-2v-10l-3 2zM136 356v9l2 2v-9l-2-2zM140 358v9l3 1v-9l-3-1zM138 302a10 10 0 0 1-2-19c29-6 58-16 86-30 62-30 110-74 130-118a10 10 0 0 1 18 8c-22 48-74 95-139 127a366 366 0 0 1-93 32z"/><path d="M374 202c-4 0-8-3-9-7l-11-44-44 11a10 10 0 1 1-5-19l63-16 16 63a10 10 0 0 1-10 12z"/></g></svg>